<svg viewBox="-31 0 512 512" xmlns="http://www.w3.org/2000/svg"><path d="m0 497c0 8.285156 6.714844 15 15 15h90c14.421875 0 27.273438-6.828125 35.515625-17.414062 36.5625 11.550781 74.515625 17.414062 112.90625 17.414062h121.578125c24.8125 0 45-20.1875 45-45 0-5.855469-1.136719-11.449219-3.179688-16.585938 19.09375-5.203124 33.179688-22.691406 33.179688-43.414062 0-11.515625-4.355469-22.03125-11.496094-30 7.144532-7.96875 11.496094-18.484375 11.496094-30s-4.355469-22.03125-11.496094-30c7.144532-7.96875 11.496094-18.484375 11.496094-30 0-24.8125-20.1875-45-45-45h-82.105469c1.164063-2.757812 2.367188-5.554688 3.59375-8.398438 9.101563-21.105468 18.511719-42.929687 18.511719-66.601562 0-41.460938-33.535156-76-75-76-7.148438 0-13.304688 5.046875-14.707031 12.058594l-7.660157 38.300781c-10.0625 50.304687-21.175781 56-62.523437 77.1875-10.929687 5.597656-23.769531 12.179687-38.753906 20.722656-6.898438-16.019531-22.835938-27.269531-41.355469-27.269531h-90c-8.285156 0-15 6.714844-15 15zm198.785156-251.753906c22.390625-11.472656 38.5625-19.757813 51.226563-33.785156 12.949219-14.347657 20.785156-32.953126 27.039062-64.21875l4.902344-24.523438c18.8125 5.507812 33.046875 23.558594 33.046875 44.28125 0 17.476562-8.164062 36.410156-16.0625 54.722656-2.863281 6.644532-5.785156 13.4375-8.386719 20.277344h-20.550781c-8.285156 0-15 6.714844-15 15s6.714844 15 15 15h135c8.269531 0 15 6.730469 15 15s-6.730469 15-15 15h-30c-8.285156 0-15 6.714844-15 15s6.714844 15 15 15h30c8.269531 0 15 6.730469 15 15s-6.730469 15-15 15h-30c-8.285156 0-15 6.714844-15 15s6.714844 15 15 15h30c8.269531 0 15 6.730469 15 15s-6.730469 15-15 15h-30c-8.285156 0-15 6.714844-15 15s6.714844 15 15 15c8.269531 0 15 6.730469 15 15s-6.730469 15-15 15h-121.578125c-35.160156 0-69.921875-5.34375-103.421875-15.875v-194.253906c19.339844-11.53125 35.515625-19.824219 48.785156-26.625zm-168.785156-3.246094h75c8.269531 0 15 6.730469 15 15v210c0 8.269531-6.730469 15-15 15h-75zm0 0"/><path d="m90 437c0 8.285156-6.714844 15-15 15s-15-6.714844-15-15 6.714844-15 15-15 15 6.714844 15 15zm0 0"/><path d="m270 15v31c0 8.285156 6.714844 15 15 15s15-6.714844 15-15v-31c0-8.285156-6.714844-15-15-15s-15 6.714844-15 15zm0 0"/><path d="m364.394531 39.785156-21.214843 21.214844c-5.859376 5.859375-5.859376 15.355469 0 21.214844 5.859374 5.855468 15.355468 5.855468 21.214843 0l21.210938-21.214844c5.859375-5.859375 5.859375-15.355469 0-21.214844-5.859375-5.855468-15.355469-5.855468-21.210938 0zm0 0"/><path d="m184.394531 39.785156c-5.859375 5.859375-5.859375 15.355469 0 21.214844l21.210938 21.214844c5.859375 5.855468 15.355469 5.855468 21.214843 0 5.855469-5.859375 5.855469-15.355469 0-21.214844l-21.214843-21.214844c-5.855469-5.855468-15.355469-5.855468-21.210938 0zm0 0"/></svg>