<svg height="501pt" viewBox="-53 0 501 501.33334" width="501pt" xmlns="http://www.w3.org/2000/svg"><path d="m101.898438 501.332031c-14.917969-.070312-26.992188-12.148437-27.066407-27.066406l.535157-72 41.332031-134.398437c-6.667969-13.652344-10.046875-28.675782-9.867188-43.867188 0-59.199219 25.066407-96 65.335938-96 28.132812 0 52 23.066406 52 50.265625.007812 4.925781-.710938 9.820313-2.132813 14.535156l-18.269531 60.53125c-.625 2.351563-.941406 4.769531-.933594 7.203125 0 26.132813 27.734375 27.464844 33.335938 27.464844 34 0 62.664062-44 62.664062-96 0-58.800781-50.265625-106.667969-112-106.667969-61.730469 0-112 47.867188-112 106.667969-.046875 16.226562 3.792969 32.230469 11.203125 46.667969l3.597656 6.933593-51.597656 51.730469-7.203125-10.796875c-19.933593-29.496094-30.613281-64.269531-30.664062-99.867187 0-102.933594 88.53125-186.667969 197.332031-186.667969s197.332031 83.734375 197.332031 186.667969c0 102.933593-66.933593 186.664062-149.332031 186.664062-23.609375-.09375-46.714844-6.839843-66.667969-19.464843l-14.265625 68.132812-39.332031 66.132812c-4.917969 8.195313-13.777344 13.203126-23.335937 13.199219zm-5.730469-94.398437v67.332031c-.125 2.683594 1.632812 5.089844 4.222656 5.796875 2.59375.703125 5.324219-.488281 6.574219-2.863281l37.46875-63.066407 20.53125-97.464843 13.46875 10.796875c20.132812 16 43.332031 24.535156 67.066406 24.535156 70.535156 0 128-74.132812 128-165.332031 0-91.203125-78.933594-165.335938-176-165.335938s-176 74.132813-176 165.335938c.023438 26.902343 6.957031 53.34375 20.132812 76.796875l22.132813-22.132813c-6.800781-15.554687-10.296875-32.355469-10.265625-49.332031 0-70.535156 59.867188-128 133.332031-128 73.46875 0 133.335938 57.464844 133.335938 128 0 64.667969-37.734375 117.332031-84 117.332031-26.269531 0-54.667969-15.199219-54.667969-48.796875-.015625-4.414062.570312-8.8125 1.734375-13.070312v-.265625l18.398437-60.53125c.816407-2.726563 1.21875-5.558594 1.199219-8.402344 0-15.464844-14.265625-28.933594-30.664062-28.933594-40.933594 0-44 57.203125-44 74.667969-.203125 13.089844 3.011719 26.003906 9.332031 37.464844l2.265625 4zm0 0"/></svg>